<?xml version="1.0" encoding="UTF-8"?>
<svg id="_Слой_1" data-name="Слой 1" xmlns="http://www.w3.org/2000/svg" viewBox="0 0 90 90">
  <defs>
    <style>
      .cls-1 {
        fill: #6d9d3d;
      }

      .cls-1, .cls-2, .cls-3, .cls-4, .cls-5 {
        stroke-width: 0px;
      }

      .cls-2 {
        fill: #b0ca97;
      }

      .cls-3 {
        fill: #6f409f;
      }

      .cls-4 {
        fill: #fdfcfd;
      }

      .cls-5 {
        fill: #fdfdfd;
      }
    </style>
  </defs>
  <path class="cls-3" d="M89.96,43.65v8.05c-2.21,3.52-3.7,7.58-7.51,9.9-.95.58-.58,1.57-.61,2.44-.31,11.64-9.99,19.69-20.52,16.76-.98-.27-1.72-.2-2.25.77-2.37,4.33-6.38,6.56-10.71,8.39h-7.38c-4.09-2.07-7.98-4.36-10.22-8.63-.56-1.06-1.49-.59-2.36-.43-11.22,2-20.02-5.31-20.28-16.81-.02-.85.42-1.88-.54-2.46-3.8-2.33-5.35-6.36-7.52-9.91v-9.39c2.38-3.81,4.22-8.03,8.51-10.33.9-.48.25-1.66.09-2.49-2.48-12.79,7.08-22.67,19.75-20.39.88.16,1.77.64,2.35-.44,2.27-4.24,6.27-6.41,10.23-8.62h7.38c4.33,1.83,8.36,4.06,10.73,8.4.76,1.41,1.83.71,2.91.52,5.36-.99,10.25.02,14.24,3.91,4.45,4.34,6.23,9.6,5.23,15.81-.19,1.16-1.28,2.64.41,3.61,4.43,2.56,6.44,6.82,8.08,11.36ZM10.8,63.48c0,10.25,7.93,16.79,17.49,14.61,2.26-.52,3.75,0,5.06,2.02,6.28,9.69,16.83,9.67,23.34-.05,1.24-1.85,2.64-2.49,4.77-2.06,9.92,2.02,17.47-3.9,17.65-14.05.04-2.51.85-4,2.82-5.52,7.55-5.84,7.09-18.14-.93-23.27-2.6-1.66-3.18-3.47-2.34-6.12,2.9-9.17-6.81-20.99-17.12-17.16-2.03.75-3.53,0-4.78-1.89C50.28.24,39.74.16,33.38,9.83c-1.4,2.14-2.99,2.74-5.35,1.95-2.39-.8-4.83-.78-7.23.03-7.11,2.4-11.16,9.61-9.53,17,.56,2.52.68,4.53-2.08,6.26C.96,40.23.49,52.55,8.17,58.54c1.8,1.41,3.28,2.7,2.63,4.95Z"/>
  <path class="cls-4" d="M89.96,43.65c-1.64-4.53-3.65-8.8-8.08-11.36-1.69-.97-.59-2.45-.41-3.61,1-6.21-.78-11.47-5.23-15.81-3.99-3.89-8.88-4.89-14.24-3.91-1.08.2-2.14.89-2.91-.52C56.72,4.1,52.69,1.88,48.36.04,61.55.04,74.75.08,87.94,0c1.68-.01,2.07.38,2.06,2.06-.08,13.87-.04,27.73-.04,41.6Z"/>
  <path class="cls-4" d="M40.98.04c-3.97,2.21-7.96,4.38-10.23,8.62-.58,1.08-1.47.6-2.35.44-12.67-2.28-22.22,7.6-19.75,20.39.16.84.81,2.01-.09,2.49-4.28,2.29-6.13,6.51-8.51,10.33C.06,28.89.09,15.48.01,2.06,0,.38.39-.01,2.07,0c12.97.08,25.94.04,38.91.04Z"/>
  <path class="cls-4" d="M48.36,89.95c4.33-1.83,8.34-4.06,10.71-8.39.53-.97,1.27-1.04,2.25-.77,10.53,2.93,20.2-5.12,20.52-16.76.02-.86-.35-1.86.61-2.44,3.81-2.32,5.3-6.38,7.51-9.9,0,12.08-.04,24.15.04,36.23.01,1.68-.38,2.07-2.06,2.06-13.19-.08-26.39-.04-39.58-.04Z"/>
  <path class="cls-4" d="M.06,51.7c2.17,3.56,3.72,7.58,7.52,9.91.95.58.52,1.61.54,2.46.26,11.5,9.06,18.81,20.28,16.81.88-.16,1.81-.63,2.36.43,2.25,4.26,6.13,6.56,10.22,8.63-12.92,0-25.83-.05-38.75.05-1.84.01-2.25-.35-2.23-2.22.11-12.02.06-24.05.06-36.08Z"/>
  <path class="cls-5" d="M10.8,63.48c.65-2.25-.83-3.54-2.63-4.95-7.68-5.99-7.21-18.31,1.02-23.47,2.76-1.73,2.64-3.74,2.08-6.26-1.63-7.39,2.41-14.6,9.53-17,2.4-.81,4.84-.84,7.23-.03,2.36.79,3.95.19,5.35-1.95C39.74.16,50.28.24,56.75,10c1.25,1.89,2.76,2.65,4.78,1.89,10.31-3.83,20.02,7.98,17.12,17.16-.84,2.65-.26,4.46,2.34,6.12,8.02,5.13,8.48,17.43.93,23.27-1.97,1.52-2.77,3.02-2.82,5.52-.18,10.15-7.73,16.07-17.65,14.05-2.13-.43-3.53.21-4.77,2.06-6.52,9.72-17.06,9.74-23.34.05-1.31-2.02-2.8-2.54-5.06-2.02-9.55,2.18-17.49-4.37-17.49-14.61ZM39.5,49.42c-1.16-1.03-2.07-1.82-2.96-2.64-.9-.83-1.73-1.74-2.65-2.55-2.26-2-6.05-1.83-8.11.33-1.99,2.08-2.1,5.75-.05,7.88,3.48,3.61,7.01,7.18,10.63,10.65,2.49,2.38,6.63,2.26,8.54-.51,6.46-9.35,12.88-18.74,18.95-28.34,2.8-4.42-.28-8.85-5.48-8.79-2.81.03-4.13,1.83-5.44,3.8-4.44,6.66-8.87,13.32-13.43,20.17Z"/>
  <path class="cls-1" d="M39.5,49.42c4.56-6.85,8.99-13.51,13.43-20.17,1.32-1.97,2.63-3.77,5.44-3.8,5.2-.06,8.28,4.37,5.48,8.79-6.08,9.6-12.49,18.99-18.95,28.34-1.92,2.77-6.05,2.89-8.54.51-3.62-3.47-7.15-7.04-10.63-10.65-2.05-2.13-1.94-5.8.05-7.88,2.06-2.16,5.86-2.33,8.11-.33.92.81,1.75,1.72,2.65,2.55.88.82,1.8,1.61,2.96,2.64ZM61.93,31.48c.08-1.31-.22-2.5-1.52-3.06-1.3-.56-2.68-.57-3.73.51-.77.79-1.38,1.74-2,2.67-4.33,6.49-8.71,12.95-12.94,19.5-1.3,2.01-2.34,2.38-4.03.5-1.41-1.58-3-2.99-4.53-4.45-1.58-1.5-3.39-2.53-5.27-.73-1.92,1.85-.88,3.65.67,5.21,2.83,2.85,5.63,5.72,8.53,8.49,2.84,2.72,4.61,2.56,6.74-.61,5.66-8.42,11.27-16.87,16.9-25.31.56-.84,1.11-1.68,1.18-2.73Z"/>
  <path class="cls-2" d="M61.93,31.48c-.08,1.05-.62,1.89-1.18,2.73-5.63,8.44-11.24,16.89-16.9,25.31-2.13,3.17-3.9,3.33-6.74.61-2.9-2.77-5.7-5.65-8.53-8.49-1.55-1.56-2.59-3.36-.67-5.21,1.88-1.81,3.69-.78,5.27.73,1.53,1.46,3.12,2.87,4.53,4.45,1.69,1.89,2.73,1.51,4.03-.5,4.23-6.56,8.6-13.02,12.94-19.5.62-.92,1.23-1.88,2-2.67,1.06-1.08,2.44-1.07,3.73-.51,1.3.56,1.6,1.75,1.52,3.06Z"/>
</svg>