<?xml version="1.0" encoding="UTF-8"?>
<svg id="_Слой_1" data-name="Слой 1" xmlns="http://www.w3.org/2000/svg" viewBox="0 0 522.03 106.19">
  <defs>
    <style>
      .cls-1 {
        fill: #7f68ac;
      }
    </style>
  </defs>
  <path class="cls-1" d="M1,106V1H39c4.75,4.01,4.88,5.47,.96,11.26-5.02,7.42-3.79,16.46,3.05,22.42,5.93,5.16,15.63,5.08,21.5-.17,6.59-5.89,7.77-15.41,2.79-22.54-3.75-5.38-3.68-6.54,.69-10.97h38c.07,1.83,.2,3.65,.21,5.48,.02,9.49-.03,18.99,.04,28.48,.04,5.14,.95,6.22,6.03,7.78,.5-.16,1.19-.25,1.74-.59,1.13-.69,2.17-1.51,3.25-2.27,9.04-6.37,21.95-2.38,25.6,7.92,2.55,7.19,.34,14.7-5.64,19.17-5.94,4.44-13.82,4.65-19.97,.17-2.61-1.9-5.06-3.1-8.11-1.76-2.82,1.91-2.92,4.73-2.93,7.63-.05,10.99-.15,21.98-.23,32.96-12.34,.07-24.69,.13-37.03,.2-4.98-2.83-5.58-5.26-2.44-9.91,.56-.83,1.14-1.64,1.65-2.5,3.37-5.76,2.62-13.96-1.75-19.14-4.35-5.17-12.23-7.03-18.6-4.79-9.63,3.39-14.81,16.01-7.48,25.91,3.64,4.91,3.29,6.57-1.29,10.34-12.68-.03-25.35-.06-38.03-.08Z"/>
  <path class="cls-1" d="M223,1h46c4.43,1.49,9.14,1.4,13.66,2.55,11.46,2.92,20.37,11.29,19.41,25.73-.6,8.89-4.41,15.5-12.32,19.67-1.06,.56-2.16,1.07-3.41,1.68,1.67,1.62,3.42,1.72,4.89,2.43,4.95,2.4,9,5.71,11,11.01,4.5,11.88,2.09,27.88-11.37,35.81-6.76,3.98-14.07,5.82-21.8,6.3-1.99-.06-3.98-.14-5.98-.17-13.3-.16-26.61,.31-39.91-.26,0-27.27,0-54.54-.01-81.81,0-7.65-.1-15.29-.16-22.94Zm29.09,82.81c3.31,.74,6.13,.38,8.93,.42,1.65,.02,3.33-.03,4.96-.26,5.24-.75,8.74-4.83,8.95-10.29,.2-5.28-2.81-9.53-7.81-10.65-4.87-1.09-9.8-1.03-15.02-.38v21.16Zm-.07-60.81v18.1c4.81,.83,9.44,.7,13.94-.36,4.49-1.06,7.26-5.19,7.01-9.65-.23-4.28-3.07-7.26-8.11-7.96-4.08-.57-8.22-.47-12.85-.13Z"/>
  <path class="cls-1" d="M489,1h31c.01,1.26-.77,2.18-1.39,3.15-6.11,9.51-12.32,18.96-18.35,28.51-3.97,6.28-8.42,12.28-11.88,18.93,2.26,3.61,4.36,7,6.49,10.38,9.05,14.34,18.11,28.68,27.17,43.02-.74,1.26-2.01,.99-3.11,.99-9.61-.01-19.22-.07-28.84-.11-9.71-16.67-19.43-33.34-29.14-50.01-.35-.61-.76-1.07-1.79-.79,0,2.09,0,4.25,0,6.41-.06,14.83-.12,29.65-.18,44.48-9.32,.01-18.64,.03-27.96,.04-.09-1.49-.25-2.97-.25-4.46-.01-31.85-.01-63.71,0-95.56,0-1.65,.16-3.31,.24-4.96,9.33,0,18.67,0,28,0,.09,16.38,.18,32.76,.27,49.14,.35,.04,.69,.09,1.04,.13,5.96-10.11,11.97-20.2,17.87-30.34,3.66-6.28,7.72-12.33,10.82-18.92Z"/>
  <path class="cls-1" d="M146,1c12.67,0,25.33,0,38,0,10.68,32.46,21.37,64.91,32.03,97.38,.82,2.5,2.15,4.88,1.98,7.64-10.02,.03-20.03,.06-30.05,.1-2.87-5.99-3.07-12.8-5.86-19.2-11.2-.23-22.43-.3-33.73,.04-1.85,6.54-3.59,12.72-5.35,18.94h-31.15c3.53-9.8,5.9-19.55,9.68-28.71,13.47,1.47,23.64-3.72,28.02-14,2.16-5.07,2.49-10.37,1.23-15.65-1.9-7.94-7.51-13-14.41-16.91,3.27-10.08,6.44-19.86,9.6-29.63Zm19.3,18.69c-3.73,15-7.18,28.88-10.75,43.25h21.73c-3.63-14.3-7.15-28.17-10.98-43.25Z"/>
  <path class="cls-1" d="M310,1h29c-.7,12.24-.25,24.46-.27,36.96,7.17,.38,13.66,0,20.08,1.01,11.94,1.87,21.31,7.2,26.27,18.78,2.51,5.86,2.49,12,1.95,18.17-.61,7.03-3.38,13.15-8.24,18.27-7.53,7.93-17.14,11.41-27.75,11.76-12.64,.42-25.31,.17-37.97,.19-.96,0-2.03,.19-3.08-1.24V1Zm28.96,82.66c4.05,.19,7.48,.42,10.91-.34,6.01-1.33,9.14-5.17,9.11-11.2-.02-5.47-3.47-9.89-8.96-10.92-3.54-.66-7.18-.47-11.06-.06v22.52Z"/>
  <path class="cls-1" d="M395.03,105.95c-.06-2-.18-3.99-.18-5.99-.01-30.82-.01-61.65,0-92.47,0-2.16,.1-4.33,.15-6.49,9.33,0,18.67,0,28,0,.07,1.5,.21,2.99,.21,4.49,.01,32.16,.01,64.33,0,96.49,0,1.33-.15,2.66-.23,3.98-9.32,0-18.63-.01-27.95-.02Z"/>
</svg>